<?xml version="1.0" encoding="utf-8"?>
<!-- Generator: Adobe Illustrator 27.6.1, SVG Export Plug-In . SVG Version: 6.00 Build 0)  -->
<svg version="1.1" id="Layer_1" xmlns="http://www.w3.org/2000/svg" xmlns:xlink="http://www.w3.org/1999/xlink" x="0px" y="0px"
	 viewBox="0 0 360 360" style="enable-background:new 0 0 360 360;" xml:space="preserve">
<style type="text/css">
	.st0{fill:#FFFFFF;}
	.st1{fill:#C12033;}
</style>
  <g>
  <polygon points="180.3,36 78.1,205.6 111.1,228.4 249.5,228.4 282.7,205.9 	"/>
    <polygon class="st0" points="180.3,53.3 89.8,203.4 114.3,220.4 246.2,220.4 270.8,203.5 	"/>
    <polygon class="st1" points="144.2,130.6 141.5,135.1 119.2,172.1 140.1,174.8 163.9,135.1 166.6,130.6 169.6,125.6 162,117.2
      161.9,117.2 161.9,117.2 161.9,117.2 174.6,117.2 180.3,107.7 185.9,117.2 198.7,117.2 198.6,117.2 198.7,117.2 198.6,117.2
      191,125.6 194,130.6 216.4,130.6 180.3,70.8 	"/>
    <polygon class="st1" points="227.3,186.2 227.3,186.1 231.8,193.7 	"/>
    <polygon points="243.2,175.2 242,173.2 217.7,170.2 211.3,169.4 174.4,164.9 181.1,153.7 184.5,152.1 188,152.1 200.9,152.1
      204.4,152.1 207.8,153.7 211.9,160.5 236.3,163.7 236.3,163.7 220.8,138 219,135.1 198.2,135.1 196.7,135.1 192.3,135.1
      190.7,135.1 169.9,135.1 159.7,152.1 159.7,152.1 153.5,162.4 153.5,162.4 145.6,175.5 220.8,185.3 227.3,186.1 227.3,186.2
      231.8,193.7 229.5,195.3 226.8,195.3 133.8,195.3 131.1,195.3 128.8,193.7 133.8,185.4 137.6,179 116.7,176.2 113.5,181.6
      101.6,201.3 117.6,212.3 117.6,212.3 117.6,212.3 117.6,212.3 123.6,212.3 237,212.3 243,212.3 258.9,201.3 258.9,201.3 	"/>
    <path fill="#FFFFFF" d="M72.1,270.3H55.7l-3,7.2H44l15.1-35h9.8l15.1,35H75C75,277.5,72.1,270.3,72.1,270.3z M69,262.6l-5.1-12.4l-5,12.4H69z"/>
    <path fill="#FFFFFF" d="M119.8,269.8v7.8H92.6v-35h8.3v27.3L119.8,269.8L119.8,269.8z"/>
    <path fill="#FFFFFF" d="M155.8,269.8v7.8h-27.3v-35h8.3v27.3L155.8,269.8L155.8,269.8z"/>
    <path fill="#FFFFFF" d="M162.3,273.4l4-6.8c3.2,2.3,8.8,4,12.8,4c3.6,0,6-1.1,6-3.2c0-1.9-2.4-2.4-6.7-3.3c-11-2.4-15-4.2-15-10.5
      c0-9.4,8.8-11.8,16-11.8c5.3,0,9.9,1.3,13.9,3.7l-3.9,6.9c-3.4-2-7.3-2.9-10.6-2.9c-4.3,0-6.3,1.3-6.3,3.2c0,1.8,1.6,2.4,7,3.3
      c5.2,0.9,14.8,2.3,14.8,10.9c0,7-6.3,11.4-15.5,11.4C171.8,278.2,165.1,275.4,162.3,273.4L162.3,273.4z"/>
    <path fill="#FFFFFF" d="M233.8,250.3h-12.1v27.3h-8.4v-27.3h-12v-7.8h32.4L233.8,250.3L233.8,250.3z"/>
    <path fill="#FFFFFF" d="M263.6,270.3h-16.4l-3,7.2h-8.8l15.1-35h9.8l15.1,35h-8.9L263.6,270.3L263.6,270.3z M260.4,262.6l-5.1-12.4l-5,12.4H260.4z"/>
    <path fill="#FFFFFF" d="M297.7,265.5h-5.4v12H284v-35h17.3c8.5,0,13.6,4.7,13.6,11.5c0,5.3-3.1,9.3-8.4,10.8l9.6,12.7h-10L297.7,265.5L297.7,265.5
      z M292.3,257.8h8.8c3.3,0,5.1-1.3,5.1-3.8c0-2.5-1.8-3.8-5.1-3.8h-8.8V257.8L292.3,257.8z"/>
    <path fill="#FFFFFF" d="M27,305.8c0-10.7,8.5-18.2,20.1-18.2c7.2,0,13.2,2.9,16.6,7.3l-7.3,4.6c-2.1-2.4-5.5-3.8-9.4-3.8
      c-6.7,0-11.4,4.1-11.4,10.1c0,6,4.6,10.1,11.4,10.1c4.1,0,7.8-1.6,9.8-4.7l7,4.9C60.3,321,54.2,324,47,324
      C35.5,324,27,316.5,27,305.8L27,305.8z"/>
    <path fill="#FFFFFF" d="M87,311.3h-5.4v12h-8.3v-35h17.3c8.5,0,13.6,4.7,13.6,11.5c0,5.3-3.1,9.3-8.4,10.8l9.6,12.7h-10
      C95.4,323.3,87,311.3,87,311.3z M81.7,303.6h8.8c3.3,0,5.1-1.3,5.1-3.8s-1.7-3.8-5.1-3.8h-8.8V303.6L81.7,303.6z"/>
    <path fill="#FFFFFF" d="M143,315.6v7.8h-29v-35h28.5v7.8h-20.2v5.7h19.4v7.7h-19.4v6.1L143,315.6L143,315.6z"/>
    <path fill="#FFFFFF" d="M150.6,319.2l4-6.8c3.2,2.3,8.8,4,12.8,4c3.6,0,6-1.1,6-3.2c0-1.9-2.4-2.4-6.7-3.3c-11-2.4-15-4.2-15-10.5
      c0-9.4,8.8-11.8,16-11.8c5.3,0,9.9,1.3,13.9,3.7l-4,6.9c-3.4-2-7.3-2.9-10.6-2.9c-4.3,0-6.3,1.3-6.3,3.2c0,1.8,1.6,2.4,7,3.3
      c5.2,0.9,14.8,2.3,14.8,10.9c0,7-6.3,11.4-15.5,11.4C160.1,324,153.4,321.2,150.6,319.2L150.6,319.2z"/>
    <path fill="#FFFFFF" d="M222,296.1H210v27.3h-8.4v-27.3h-12v-7.8H222L222,296.1L222,296.1z"/>
    <path fill="#FFFFFF" d="M239,323.3h-8.3v-35h8.3V323.3z"/>
    <path fill="#FFFFFF" d="M284,288.3v35h-7.4l-17.7-21.4v21.4h-8.2v-35h7.4l17.7,21.5v-21.5H284z"/>
    <path fill="#FFFFFF" d="M333,306.3c0,10.3-8,17.7-19.4,17.7s-20.1-7.4-20.1-18.2c0-10.8,8.7-18.1,20.3-18.1c5.9,0,11.4,1.9,15.5,6.2l-6.6,5.4
      c-2.4-2.4-5.5-3.5-9.1-3.5c-6.8,0-11.5,4.2-11.5,10.1c0,5.9,4.6,10.1,11.5,10.1c5,0,8.4-2.1,9.8-5.6h-9.8v-6.8h19.1
      C332.8,304.1,333,305,333,306.3L333,306.3z"/>
</g>
</svg>
