<?xml version="1.0" encoding="UTF-8"?>
<svg xmlns="http://www.w3.org/2000/svg" xmlns:xlink="http://www.w3.org/1999/xlink" viewBox="0 760 110 85">



  <defs>
<clipPath id="clip-0">
<path clip-rule="nonzero" d="M 0 767.582031 L 108 767.582031 L 108 842 L 0 842 Z M 0 767.582031 "/>
</clipPath>
</defs>
<g clip-path="url(#clip-0)">
<path fill-rule="nonzero" fill="rgb(8.110046%, 13.105774%, 22.946167%)" fill-opacity="1" d="M 107.046875 799.289062 C 106.285156 798.398438 105.5625 797.964844 103.628906 797.707031 C 103.628906 797.707031 102.707031 797.683594 102.53125 797.125 C 102.285156 796.339844 102.847656 795.445312 102.847656 795.445312 C 103.066406 794.878906 103.433594 793.933594 103.613281 792.820312 C 103.621094 792.773438 103.628906 792.726562 103.636719 792.679688 C 103.667969 792.429688 103.6875 792.082031 103.664062 791.648438 C 103.628906 789.453125 102.6875 787.269531 100.957031 785.457031 C 99.035156 783.4375 96.453125 782.183594 94.21875 782.183594 C 93.808594 782.183594 93.414062 782.304688 93.019531 782.304688 C 91.253906 782.300781 90.597656 780.507812 90.824219 779.503906 C 91.078125 778.382812 91.289062 777.28125 91.289062 776.183594 C 91.289062 774.800781 91.050781 773.484375 90.570312 772.238281 C 90.015625 770.839844 88.484375 768.164062 86.347656 767.789062 C 83.988281 767.375 17.847656 767.710938 17.847656 767.710938 C 16.21875 767.710938 14.757812 767.976562 13.496094 768.511719 C 10.453125 769.796875 9.316406 772.753906 8.476562 777.078125 L 0.078125 823.65625 C -0.15625 824.832031 0.148438 826.046875 0.90625 826.976562 C 1.667969 827.902344 2.800781 828.4375 4 828.4375 L 8.605469 828.4375 C 10.507812 828.4375 57.160156 828.296875 58.015625 828.347656 C 58.808594 828.390625 58.753906 829.160156 58.539062 830.011719 C 58.183594 831.503906 58.226562 831.855469 57.984375 833.296875 L 57.300781 837.335938 C 57.105469 838.496094 57.429688 839.683594 58.191406 840.582031 C 58.953125 841.480469 60.070312 842 61.246094 842 L 68.902344 842 C 69.851562 842 73.71875 842 75.042969 842 C 75.960938 842 79.800781 842 80.609375 842 L 88.265625 842 C 88.96875 842 91.9375 842 93.089844 842 L 94.480469 842 C 98.777344 842 101.804688 839.273438 102.574219 834.699219 C 102.820312 833.242188 107.949219 802.523438 107.949219 802.523438 C 108.136719 801.367188 107.804688 800.183594 107.046875 799.289062 "/>
</g>
<path fill-rule="nonzero" fill="rgb(94.828796%, 33.262634%, 13.275146%)" fill-opacity="1" d="M 82.601562 775.246094 C 82.785156 774.847656 83.078125 774.648438 83.457031 774.648438 C 83.789062 774.648438 84.054688 774.792969 84.265625 775.101562 C 84.472656 775.40625 84.570312 775.804688 84.570312 776.273438 C 84.570312 776.707031 84.460938 777.175781 84.25 777.683594 C 84.042969 778.207031 83.691406 778.714844 83.214844 779.21875 C 82.617188 778.027344 82.308594 777.125 82.308594 776.492188 C 82.308594 776.074219 82.40625 775.660156 82.601562 775.246094 Z M 78.257812 784.421875 C 77.871094 785.402344 77.644531 786.417969 77.589844 787.488281 C 78.855469 787.957031 80.03125 788.375 80.871094 788.675781 C 81.039062 788.703125 81.195312 788.730469 81.339844 788.757812 C 81.167969 788.324219 81.078125 787.851562 81.078125 787.332031 C 81.078125 786.878906 81.152344 786.410156 81.308594 785.921875 C 81.457031 785.453125 81.6875 785.019531 82.019531 784.621094 C 82.933594 786.214844 83.71875 787.503906 84.363281 788.472656 C 85.183594 788.433594 86.140625 788.457031 87.289062 788.550781 C 87.910156 788.617188 88.46875 788.71875 88.949219 788.863281 C 89.066406 788.898438 89.175781 788.933594 89.285156 788.972656 C 89.285156 788.957031 89.292969 788.941406 89.292969 788.925781 C 89.222656 788.835938 89.152344 788.742188 89.085938 788.648438 L 88.753906 788.234375 C 88.914062 788 89.085938 787.617188 89.28125 787.09375 C 89.476562 786.570312 89.621094 786.046875 89.730469 785.558594 L 87.425781 782.46875 C 87.351562 782.851562 87.230469 783.320312 87.070312 783.863281 C 86.910156 784.421875 86.765625 784.835938 86.632812 785.109375 C 85.996094 784.167969 85.386719 783.15625 84.789062 782.089844 L 84.972656 781.875 C 85.421875 781.351562 85.824219 780.828125 86.15625 780.320312 C 86.484375 779.816406 86.765625 779.183594 86.972656 778.425781 C 87.179688 777.683594 87.289062 776.925781 87.289062 776.183594 C 87.289062 775.300781 87.144531 774.46875 86.851562 773.710938 C 86.558594 772.96875 86.117188 772.355469 85.53125 771.886719 C 84.933594 771.433594 84.203125 771.199219 83.324219 771.199219 C 82.40625 771.199219 81.652344 771.453125 81.078125 771.957031 C 80.492188 772.464844 80.066406 773.132812 79.796875 773.980469 C 79.515625 774.828125 79.382812 775.75 79.382812 776.761719 C 79.382812 777.609375 79.476562 778.40625 79.671875 779.148438 C 79.867188 779.886719 80.148438 780.683594 80.527344 781.511719 C 79.464844 782.328125 78.710938 783.285156 78.257812 784.421875 "/>
<path fill-rule="nonzero" fill="rgb(94.828796%, 33.262634%, 13.275146%)" fill-opacity="1" d="M 57.101562 784.589844 C 57.304688 784.703125 57.492188 784.816406 57.652344 784.929688 C 57.980469 785.167969 58.476562 785.242188 58.640625 785.253906 C 58.660156 785.253906 58.683594 785.253906 58.699219 785.257812 L 58.769531 785.265625 C 58.792969 785.269531 58.816406 785.273438 58.839844 785.277344 C 59.347656 785.390625 60.28125 785.460938 61.503906 785.476562 L 63.210938 777.109375 L 68.28125 777.109375 L 69.382812 771.769531 L 60.277344 771.710938 C 59.097656 771.691406 58.109375 771.851562 57.3125 772.195312 C 56.519531 772.535156 55.832031 773.042969 55.257812 773.714844 C 54.679688 774.390625 54.171875 775.21875 53.738281 776.203125 C 53.613281 776.484375 53.488281 776.777344 53.363281 777.082031 C 53.355469 777.097656 58.597656 777.105469 58.648438 777.109375 L 57.101562 784.589844 "/>
<path fill-rule="nonzero" fill="rgb(94.828796%, 33.262634%, 13.275146%)" fill-opacity="1" d="M 46.15625 788.476562 C 45.886719 788.679688 45.566406 788.8125 45.199219 788.882812 C 44.835938 788.953125 44.445312 788.988281 44.039062 788.988281 C 43.632812 788.988281 43.246094 788.988281 42.878906 788.988281 L 38.050781 788.988281 L 37.628906 791.519531 C 37.910156 791.628906 38.734375 791.761719 38.886719 791.761719 C 38.921875 791.761719 38.964844 791.765625 39.003906 791.773438 L 44.988281 792.707031 C 45.539062 792.792969 46.425781 792.84375 47.355469 792.84375 C 47.660156 792.84375 47.960938 792.839844 48.253906 792.828125 C 48.738281 792.34375 49.144531 791.730469 49.46875 790.996094 C 49.847656 790.136719 50.160156 789.214844 50.410156 788.222656 C 50.425781 788.140625 50.425781 788.105469 50.460938 787.996094 C 50.484375 787.902344 50.507812 787.804688 50.527344 787.710938 C 50.578125 787.488281 50.554688 787.457031 50.546875 787.449219 C 50.460938 787.394531 50.382812 787.34375 50.316406 787.296875 C 50.273438 787.273438 50.136719 787.191406 50.007812 787.113281 C 48.558594 786.261719 48.367188 786.136719 48.1875 785.742188 C 48.148438 785.652344 48.109375 785.5625 48.078125 785.476562 C 48.019531 785.3125 47.980469 785.25 47.945312 785.054688 C 47.660156 783.878906 48.457031 782.507812 48.671875 782.355469 L 48.789062 782.277344 C 48.917969 782.191406 49.066406 782.144531 49.21875 782.144531 C 49.242188 782.144531 49.261719 782.144531 49.285156 782.144531 L 49.425781 782.15625 C 49.570312 782.171875 49.847656 782.21875 50.214844 782.296875 C 49.902344 781.816406 49.488281 781.464844 48.96875 781.238281 C 48.316406 780.957031 47.386719 780.816406 46.179688 780.816406 C 45.894531 780.816406 45.648438 780.816406 45.445312 780.816406 C 45.242188 780.816406 45.066406 780.8125 44.914062 780.800781 C 44.765625 780.792969 44.636719 780.773438 44.527344 780.742188 C 44.417969 780.710938 44.3125 780.65625 44.203125 780.578125 C 43.945312 780.394531 43.769531 780.140625 43.683594 779.808594 C 43.59375 779.476562 43.625 779.058594 43.773438 778.554688 C 43.910156 778.09375 44.152344 777.761719 44.496094 777.5625 C 44.84375 777.359375 45.253906 777.21875 45.730469 777.140625 L 52.269531 777.109375 L 53.148438 771.710938 L 45.691406 771.710938 C 44.507812 771.691406 43.515625 771.855469 42.714844 772.207031 C 41.914062 772.558594 40.480469 774.414062 39.945312 777.984375 C 39.808594 778.566406 39.730469 779.140625 39.710938 779.703125 C 39.691406 780.265625 39.710938 780.796875 39.769531 781.300781 C 39.832031 781.800781 39.917969 782.277344 40.027344 782.71875 C 40.132812 783.160156 40.242188 783.5625 40.351562 783.921875 C 40.445312 784.265625 40.621094 784.546875 40.882812 784.769531 C 41.140625 784.988281 41.441406 785.175781 41.789062 785.324219 C 42.132812 785.476562 42.515625 785.585938 42.929688 785.65625 C 43.34375 785.726562 43.75 785.777344 44.152344 785.808594 C 44.550781 785.839844 44.929688 785.851562 45.28125 785.851562 C 45.636719 785.851562 45.933594 785.84375 46.179688 785.824219 C 46.464844 786.042969 46.652344 786.257812 46.738281 786.457031 C 46.828125 786.65625 46.816406 787.019531 46.707031 787.542969 C 46.613281 787.964844 46.429688 788.277344 46.15625 788.476562 "/>
<path fill-rule="nonzero" fill="rgb(94.828796%, 33.262634%, 13.275146%)" fill-opacity="1" d="M 31.609375 776.957031 L 31.609375 785.429688 L 28.410156 785.429688 Z M 26.097656 791.496094 L 26.863281 789.503906 L 31.53125 789.503906 L 31.53125 790.832031 C 32.101562 790.777344 32.558594 790.75 32.863281 790.75 C 33.082031 790.75 33.285156 790.757812 33.476562 790.777344 L 33.484375 790.777344 C 33.78125 790.777344 34.660156 790.796875 35.746094 791 L 35.746094 771.769531 L 31.34375 771.769531 C 31.25 771.769531 31.082031 771.800781 30.835938 771.863281 C 30.59375 771.921875 30.300781 772.09375 29.960938 772.375 C 29.621094 772.65625 29.25 773.082031 28.847656 773.65625 C 28.449219 774.230469 28.039062 775.027344 27.617188 776.054688 L 21.070312 792.21875 C 22.785156 791.964844 24.507812 791.714844 26.097656 791.496094 "/>
<path fill-rule="nonzero" fill="rgb(94.828796%, 33.262634%, 13.275146%)" fill-opacity="1" d="M 9.230469 794.082031 C 9.292969 794.066406 11.195312 793.75 13.910156 793.320312 L 15.390625 785.972656 L 21.117188 785.972656 L 21.992188 781.660156 C 20.8125 781.660156 19.875 781.660156 19.183594 781.660156 C 18.488281 781.660156 17.945312 781.660156 17.550781 781.660156 C 17.171875 781.660156 16.894531 781.667969 16.714844 781.675781 C 16.539062 781.6875 16.382812 781.703125 16.246094 781.722656 L 17.101562 777.109375 L 22.910156 777.109375 L 24.113281 771.769531 L 18.0625 771.710938 L 18.039062 771.710938 C 16.859375 771.691406 15.863281 771.851562 15.054688 772.195312 C 14.246094 772.535156 13.3125 773.152344 12.398438 777.863281 L 9.148438 794.117188 C 9.175781 794.101562 9.203125 794.089844 9.230469 794.082031 "/>
<path fill-rule="nonzero" fill="rgb(100%, 100%, 100%)" fill-opacity="1" d="M 16 816.148438 L 10.277344 816.148438 L 8.605469 824.4375 L 4 824.4375 L 7.28125 808.035156 C 7.972656 804.207031 9.132812 802.707031 9.9375 802.367188 C 10.746094 802.023438 11.742188 801.863281 12.925781 801.882812 L 12.945312 801.882812 L 18.996094 801.945312 L 17.792969 807.28125 L 11.988281 807.28125 L 11.132812 811.894531 C 11.265625 811.875 11.421875 811.859375 11.597656 811.847656 C 11.777344 811.839844 12.054688 811.835938 12.433594 811.835938 C 12.828125 811.835938 13.371094 811.835938 14.066406 811.835938 C 14.757812 811.835938 15.695312 811.835938 16.878906 811.835938 L 16 816.148438 "/>
<path fill-rule="nonzero" fill="rgb(100%, 100%, 100%)" fill-opacity="1" d="M 95.351562 807.734375 C 95.699219 807.53125 96.109375 807.390625 96.582031 807.3125 L 103.125 807.28125 L 104 801.882812 L 96.542969 801.882812 C 95.992188 801.875 95.480469 801.90625 95.011719 801.976562 C 94.476562 802.058594 95.332031 801.984375 95.207031 804.066406 C 95.09375 805.917969 93.796875 806.976562 91.722656 806.976562 C 91.476562 806.976562 91.230469 806.960938 90.988281 806.9375 C 90.917969 807.3125 90.851562 807.71875 90.796875 808.15625 C 90.660156 808.738281 90.582031 809.3125 90.5625 809.875 C 90.542969 810.4375 90.5625 810.96875 90.625 811.472656 C 90.683594 811.976562 90.769531 812.449219 90.878906 812.890625 C 90.988281 813.332031 91.09375 813.734375 91.203125 814.09375 C 91.300781 814.4375 91.476562 814.71875 91.734375 814.941406 C 91.992188 815.160156 92.292969 815.347656 92.640625 815.496094 C 92.988281 815.648438 93.367188 815.757812 93.78125 815.828125 C 94.195312 815.902344 94.601562 815.949219 95.003906 815.980469 C 95.40625 816.011719 95.78125 816.027344 96.136719 816.027344 C 96.488281 816.027344 96.785156 816.015625 97.03125 815.996094 C 97.316406 816.21875 97.503906 816.429688 97.59375 816.628906 C 97.679688 816.832031 97.667969 817.191406 97.5625 817.714844 C 97.464844 818.136719 97.28125 818.449219 97.011719 818.648438 C 96.738281 818.851562 96.421875 818.984375 96.054688 819.054688 C 95.6875 819.128906 95.300781 819.160156 94.890625 819.160156 C 94.484375 819.160156 94.097656 819.160156 93.730469 819.160156 L 88.902344 819.160156 L 88.027344 824.4375 L 93.609375 824.4375 C 94.832031 824.4375 95.828125 824.375 96.601562 824.242188 C 97.378906 824.113281 98.003906 823.875 98.476562 823.535156 C 99.253906 822.992188 99.867188 822.203125 100.320312 821.167969 C 100.777344 820.132812 101.140625 819 101.410156 817.773438 C 101.644531 816.808594 101.746094 815.878906 101.71875 814.984375 C 101.691406 814.089844 101.546875 813.382812 101.289062 812.859375 C 100.964844 812.175781 100.476562 811.695312 99.824219 811.410156 C 99.171875 811.132812 98.242188 810.988281 97.03125 810.988281 C 96.746094 810.988281 96.503906 810.988281 96.296875 810.988281 C 96.09375 810.988281 95.917969 810.984375 95.769531 810.972656 C 95.617188 810.964844 95.488281 810.945312 95.382812 810.914062 C 95.273438 810.882812 95.164062 810.828125 95.054688 810.75 C 94.796875 810.566406 94.625 810.3125 94.535156 809.980469 C 94.449219 809.648438 94.476562 809.230469 94.628906 808.726562 C 94.761719 808.265625 95.003906 807.933594 95.351562 807.734375 "/>
<path fill-rule="nonzero" fill="rgb(100%, 100%, 100%)" fill-opacity="1" d="M 88.234375 805.738281 C 88.234375 805.699219 88.238281 805.660156 88.242188 805.621094 C 87.960938 805.636719 87.691406 805.640625 87.441406 805.640625 C 87.4375 805.640625 87.4375 805.640625 87.4375 805.640625 C 86.609375 805.640625 86.074219 805.578125 86.054688 805.574219 C 84.777344 805.378906 84.679688 804.988281 84.367188 804.921875 L 81.691406 817.957031 C 81.539062 818.398438 81.363281 818.761719 81.160156 819.039062 C 80.957031 819.324219 80.722656 819.550781 80.46875 819.71875 C 80.207031 819.890625 79.9375 820.015625 79.652344 820.097656 C 79.367188 820.175781 79.066406 820.238281 78.753906 820.277344 C 78.457031 820.21875 78.167969 820.136719 77.890625 820.035156 C 77.609375 819.9375 77.371094 819.789062 77.175781 819.597656 C 76.980469 819.40625 76.835938 819.171875 76.75 818.890625 C 76.660156 818.609375 76.664062 818.269531 76.757812 817.863281 L 79.253906 805.703125 C 78.039062 805.71875 76.53125 805.761719 74.898438 805.851562 L 72.175781 818.980469 C 72.066406 819.886719 72.066406 820.65625 72.175781 821.289062 C 72.28125 821.921875 72.46875 822.453125 72.734375 822.886719 C 73 823.320312 73.324219 823.660156 73.710938 823.910156 C 74.097656 824.164062 74.519531 824.351562 74.964844 824.484375 C 75.414062 824.613281 75.882812 824.695312 76.371094 824.726562 C 76.859375 824.753906 77.335938 824.769531 77.796875 824.769531 C 78.421875 824.769531 79.117188 824.742188 79.886719 824.679688 C 80.652344 824.621094 81.414062 824.445312 82.167969 824.152344 C 82.921875 823.859375 83.628906 823.410156 84.285156 822.796875 C 84.945312 822.183594 85.480469 821.324219 85.886719 820.21875 L 88.71875 806.421875 C 88.433594 806.3125 88.246094 806.042969 88.234375 805.738281 "/>
<path fill-rule="nonzero" fill="rgb(100%, 100%, 100%)" fill-opacity="1" d="M 67.242188 808.183594 C 67.011719 809.933594 66.714844 811.648438 66.347656 813.328125 C 65.980469 815.003906 65.558594 816.679688 65.085938 818.347656 C 65.015625 818.808594 64.867188 819.171875 64.636719 819.433594 C 64.40625 819.695312 64.136719 819.886719 63.832031 820.007812 C 63.527344 820.128906 63.207031 820.203125 62.871094 820.230469 C 62.539062 820.261719 62.246094 820.277344 61.988281 820.277344 C 61.714844 820.316406 61.464844 820.289062 61.234375 820.1875 C 61.003906 820.085938 60.8125 819.929688 60.664062 819.71875 C 60.511719 819.507812 60.40625 819.246094 60.347656 818.933594 C 60.285156 818.625 60.289062 818.269531 60.355469 817.863281 C 60.601562 816.15625 60.898438 814.46875 61.253906 812.800781 C 61.605469 811.132812 61.988281 809.511719 62.394531 807.945312 C 62.488281 807.5625 62.640625 807.257812 62.84375 807.023438 C 63.046875 806.792969 63.273438 806.613281 63.527344 806.480469 C 63.777344 806.351562 64.039062 806.265625 64.308594 806.226562 C 64.582031 806.183594 64.832031 806.164062 65.0625 806.164062 C 65.242188 806.164062 65.457031 806.179688 65.699219 806.214844 C 65.699219 806.214844 66.355469 806.328125 66.871094 806.707031 C 66.976562 806.8125 67.066406 806.9375 67.140625 807.085938 C 67.277344 807.355469 67.3125 807.722656 67.242188 808.183594 Z M 65.742188 805.710938 C 64.835938 805.914062 62.917969 806.5 61.230469 806.070312 C 61.265625 806.167969 59.628906 807.175781 57.863281 807.273438 C 57.703125 807.878906 57.542969 808.507812 57.382812 809.164062 C 57.125 810.222656 56.882812 811.300781 56.660156 812.40625 C 56.433594 813.511719 56.238281 814.625 56.066406 815.738281 C 55.898438 816.855469 55.78125 817.9375 55.710938 818.980469 C 55.65625 819.886719 55.707031 820.65625 55.863281 821.289062 C 56.019531 821.921875 56.253906 822.453125 56.566406 822.886719 C 56.878906 823.320312 57.25 823.660156 57.675781 823.910156 C 58.105469 824.164062 58.5625 824.351562 59.050781 824.484375 C 59.542969 824.613281 60.039062 824.695312 60.539062 824.726562 C 61.042969 824.753906 61.523438 824.769531 61.988281 824.769531 C 62.625 824.769531 63.261719 824.730469 63.890625 824.648438 C 64.523438 824.570312 65.15625 824.449219 65.796875 824.289062 C 66.585938 824.085938 67.3125 823.636719 67.976562 822.929688 C 68.644531 822.226562 69.144531 821.324219 69.484375 820.21875 C 70.121094 818.046875 70.644531 815.851562 71.054688 813.628906 C 71.460938 811.40625 71.78125 809.140625 72.011719 806.828125 L 72.011719 806.054688 C 70.515625 806.222656 69.484375 806.324219 67.523438 806.171875 C 66.960938 806.128906 65.742188 805.710938 65.742188 805.710938 "/>
<path fill-rule="nonzero" fill="rgb(100%, 100%, 100%)" fill-opacity="1" d="M 54.769531 807.359375 C 53.597656 807.359375 52.496094 807.320312 51.464844 807.242188 L 47.90625 824.4375 L 52.511719 824.4375 L 56 807.34375 C 55.601562 807.355469 55.191406 807.359375 54.769531 807.359375 "/>
<path fill-rule="nonzero" fill="rgb(100%, 100%, 100%)" fill-opacity="1" d="M 44.230469 810.207031 C 44.058594 810.828125 43.820312 811.390625 43.507812 811.894531 C 43.386719 812.09375 43.265625 812.292969 43.152344 812.480469 C 43.035156 812.671875 42.890625 812.839844 42.722656 812.980469 C 42.550781 813.121094 42.34375 813.230469 42.089844 813.3125 C 41.839844 813.394531 41.523438 813.433594 41.144531 813.433594 L 38.902344 813.433594 L 40.410156 806.042969 L 43.222656 806.042969 C 43.410156 806.042969 43.585938 806.109375 43.742188 806.242188 C 43.898438 806.371094 44.03125 806.542969 44.136719 806.753906 C 44.246094 806.964844 44.332031 807.199219 44.394531 807.460938 C 44.453125 807.722656 44.484375 807.972656 44.484375 808.214844 C 44.484375 808.917969 44.398438 809.582031 44.230469 810.207031 Z M 43.867188 805.371094 C 42.238281 804.839844 39.949219 803.796875 40 803.679688 C 39.945312 803.679688 39.890625 803.679688 39.832031 803.679688 C 39.128906 803.679688 37.992188 803.570312 36.558594 803.378906 L 32.261719 824.4375 L 36.660156 824.4375 L 37.964844 818.046875 L 40.777344 818.046875 L 42.242188 824.4375 L 46.523438 824.4375 L 44.972656 817.441406 C 45.488281 817.039062 45.960938 816.511719 46.390625 815.859375 C 46.816406 815.207031 47.1875 814.519531 47.5 813.792969 C 47.949219 812.789062 48.285156 811.714844 48.507812 810.566406 C 48.734375 809.421875 48.84375 808.257812 48.84375 807.070312 C 48.84375 807.027344 48.875 806.851562 48.871094 806.8125 C 47.296875 806.558594 45.429688 805.882812 43.867188 805.371094 "/>
<path fill-rule="nonzero" fill="rgb(100%, 100%, 100%)" fill-opacity="1" d="M 30.339844 802.402344 L 27.144531 817.957031 C 26.996094 818.398438 26.820312 818.761719 26.617188 819.039062 C 26.410156 819.324219 26.179688 819.550781 25.921875 819.71875 C 25.664062 819.890625 25.394531 820.015625 25.109375 820.097656 C 24.824219 820.175781 24.523438 820.238281 24.210938 820.277344 C 23.914062 820.21875 23.625 820.136719 23.347656 820.035156 C 23.066406 819.9375 22.828125 819.789062 22.632812 819.597656 C 22.433594 819.40625 22.292969 819.171875 22.207031 818.890625 C 22.117188 818.609375 22.121094 818.269531 22.214844 817.863281 L 25.496094 801.882812 L 21.175781 801.882812 L 17.632812 818.980469 C 17.523438 819.886719 17.523438 820.65625 17.632812 821.289062 C 17.738281 821.921875 17.925781 822.453125 18.191406 822.886719 C 18.457031 823.320312 18.78125 823.660156 19.167969 823.910156 C 19.554688 824.164062 19.972656 824.351562 20.421875 824.484375 C 20.871094 824.613281 21.339844 824.695312 21.828125 824.726562 C 22.316406 824.753906 22.792969 824.769531 23.253906 824.769531 C 23.878906 824.769531 24.574219 824.742188 25.34375 824.679688 C 26.109375 824.621094 26.871094 824.445312 27.625 824.152344 C 28.378906 823.859375 29.085938 823.410156 29.742188 822.796875 C 30.402344 822.183594 30.933594 821.324219 31.34375 820.21875 L 34.847656 803.136719 C 32.824219 802.867188 31.957031 802.679688 30.339844 802.402344 "/>
<path fill-rule="nonzero" fill="rgb(67.207336%, 78.981018%, 92.390442%)" fill-opacity="1" d="M 94.261719 791.914062 C 94.210938 791.914062 94.164062 791.914062 94.113281 791.910156 C 94.039062 791.90625 93.9375 791.898438 93.816406 791.886719 C 93.820312 792.292969 93.863281 793 94.027344 793.296875 C 94.101562 793.429688 94.226562 793.515625 94.378906 793.542969 C 94.539062 793.574219 94.703125 793.527344 94.828125 793.417969 C 95.046875 793.230469 95.34375 792.945312 95.566406 792.625 C 95.308594 792.320312 94.871094 791.933594 94.300781 791.917969 L 94.261719 791.914062 "/>
<path fill-rule="nonzero" fill="rgb(67.207336%, 78.981018%, 92.390442%)" fill-opacity="1" d="M 90.449219 790.539062 C 90.695312 791.042969 92.535156 791.394531 94.144531 791.507812 C 94.183594 791.511719 94.226562 791.511719 94.269531 791.515625 L 94.3125 791.515625 C 94.472656 791.519531 94.625 791.546875 94.765625 791.589844 C 94.207031 790.898438 93.730469 790.207031 93.679688 790.132812 C 92.886719 789.078125 92.570312 788.160156 92.734375 787.40625 C 92.785156 787.171875 92.878906 786.984375 92.976562 786.839844 C 91.792969 787.226562 90.757812 788.351562 90.335938 790.570312 C 90.335938 790.574219 90.332031 790.585938 90.328125 790.597656 L 90.449219 790.539062 "/>
<path fill-rule="nonzero" fill="rgb(67.207336%, 78.981018%, 92.390442%)" fill-opacity="1" d="M 97.890625 795.191406 C 98.148438 795.1875 98.3125 795.078125 98.332031 795.058594 L 98.335938 795.046875 C 98.410156 794.945312 98.472656 794.742188 98.5 794.640625 C 98.472656 794.4375 98.234375 794.21875 98.082031 794.0625 C 97.925781 794.375 97.753906 794.867188 97.890625 795.191406 "/>
<path fill-rule="nonzero" fill="rgb(67.207336%, 78.981018%, 92.390442%)" fill-opacity="1" d="M 97.371094 788.25 C 96.457031 787.222656 94.96875 786.53125 93.578125 786.707031 L 93.613281 786.769531 C 93.597656 786.777344 93.234375 786.988281 93.125 787.503906 C 92.992188 788.128906 93.296875 788.957031 94.003906 789.894531 L 94.011719 789.902344 C 94.023438 789.921875 95.226562 791.671875 96.050781 792.402344 C 96.277344 792.433594 96.910156 792.617188 98.152344 793.582031 C 98.199219 793.617188 98.460938 793.832031 98.648438 794.125 C 98.78125 793.75 99.144531 792.933594 99.273438 792.128906 C 99.273438 792.128906 99.480469 790.625 97.371094 788.25 "/>
<path fill-rule="nonzero" fill="rgb(67.207336%, 78.981018%, 92.390442%)" fill-opacity="1" d="M 97.769531 793.792969 C 96.96875 793.191406 96.46875 792.949219 96.203125 792.855469 C 96.605469 793.800781 97.09375 794.429688 97.445312 794.800781 C 97.476562 794.402344 97.65625 794.007812 97.769531 793.792969 "/>
<path fill-rule="nonzero" fill="rgb(67.207336%, 78.981018%, 92.390442%)" fill-opacity="1" d="M 77.890625 793.304688 C 77.472656 792.222656 75.539062 793.527344 75.601562 792.714844 C 77.484375 792.46875 79.351562 792.410156 81 793.339844 C 79.851562 793.390625 78.800781 793.09375 77.890625 793.304688 Z M 97.867188 795.59375 C 97.84375 795.59375 97.816406 795.59375 97.789062 795.59375 L 97.734375 795.589844 L 97.6875 795.558594 C 97.644531 795.527344 96.582031 794.800781 95.816406 792.964844 C 95.8125 792.964844 95.816406 792.964844 95.8125 792.964844 C 95.582031 793.273438 95.304688 793.539062 95.089844 793.722656 C 94.917969 793.875 94.699219 793.953125 94.476562 793.953125 C 94.417969 793.953125 94.363281 793.949219 94.308594 793.9375 C 94.039062 793.890625 93.808594 793.726562 93.675781 793.488281 C 93.445312 793.074219 93.414062 792.214844 93.414062 791.847656 C 93.03125 791.804688 92.5625 791.742188 92.09375 791.648438 C 91.117188 791.457031 90.496094 791.207031 90.210938 790.890625 C 90.140625 791.058594 90.0625 791.234375 90.046875 791.269531 L 89.828125 791.660156 C 89.828125 791.660156 88.976562 790.105469 82.710938 790.835938 C 82.628906 790.84375 82.296875 790.953125 82.175781 791.113281 C 82.175781 791.113281 78.730469 790.292969 74.71875 790.292969 C 74.71875 790.292969 71.898438 787.40625 63.550781 787.617188 C 63.550781 787.617188 60.070312 787.738281 58.589844 787.410156 C 58.589844 787.410156 57.679688 787.375 56.980469 786.875 C 55.230469 785.617188 51.769531 784.816406 51.046875 784.753906 C 51.046875 784.753906 50.75 784.957031 51.164062 785.875 C 51.210938 785.980469 51.285156 786.074219 51.375 786.148438 C 51.839844 786.523438 53.519531 787.796875 55.765625 788.667969 C 55.765625 788.667969 52.222656 788.503906 51.832031 789.015625 C 51.832031 789.015625 55.46875 790.054688 58.53125 789.632812 C 58.53125 789.632812 62.574219 791.105469 69.070312 791.527344 C 69.070312 791.527344 70.707031 792.59375 74.976562 793.570312 C 74.976562 793.570312 77.773438 794.824219 82.75 795.769531 C 82.75 795.769531 78.835938 795.382812 76.636719 796.113281 C 76.636719 796.113281 78.25 796.480469 80.683594 799.523438 C 80.683594 799.523438 84.046875 803.039062 86.414062 801.820312 C 86.414062 801.820312 88.734375 800.488281 90.046875 798.84375 C 90.917969 797.757812 91.28125 797.261719 92.265625 796.113281 C 92.265625 796.113281 92.859375 796.296875 93.738281 797.785156 C 93.738281 797.785156 94.414062 798.730469 95.425781 797.917969 C 95.425781 797.917969 95.570312 797.847656 96.011719 797.550781 C 96.1875 797.433594 96.34375 797.285156 96.476562 797.117188 C 96.582031 796.984375 96.726562 796.824219 96.894531 796.6875 C 96.894531 796.6875 97.304688 796.316406 97.777344 796.25 C 97.777344 796.25 98.039062 796.210938 98.039062 795.613281 L 98.039062 795.582031 C 97.988281 795.589844 97.929688 795.59375 97.867188 795.59375 "/>
<path fill-rule="nonzero" fill="rgb(8.110046%, 13.105774%, 22.946167%)" fill-opacity="1" d="M 81.898438 790.847656 C 81.898438 790.847656 76.011719 788.800781 72.480469 787.34375 C 71.457031 786.921875 70.550781 786.25 69.855469 785.386719 C 69.382812 784.796875 68.660156 782.441406 67.980469 781.6875 C 67.859375 781.554688 67.785156 782.964844 67.664062 782.839844 C 67.03125 782.160156 66.433594 781.578125 66.03125 781.332031 C 66.03125 781.332031 63.96875 780.457031 65.160156 782.722656 C 65.160156 782.722656 66.285156 784.402344 66.773438 785.203125 C 66.847656 785.328125 66.726562 785.484375 66.585938 785.4375 C 66.128906 785.285156 65.386719 785.125 64.980469 785.503906 C 64.980469 785.503906 67.410156 787.589844 69.171875 787.800781 C 69.171875 787.800781 71.941406 788.03125 74.980469 789.914062 C 74.980469 789.914062 79.105469 789.925781 81.898438 790.847656 "/>
<path fill-rule="nonzero" fill="rgb(28.77655%, 45.375061%, 76.173401%)" fill-opacity="1" d="M 87.117188 802.300781 C 87.117188 802.300781 89.339844 800.726562 91.695312 801.226562 C 91.695312 801.226562 93.582031 801.589844 93.613281 802.410156 C 93.613281 802.410156 94.347656 802.328125 94.0625 803.183594 C 94.0625 803.183594 93.222656 805.207031 89.796875 804.390625 C 89.796875 804.390625 88.519531 804.214844 88.515625 803.511719 C 88.515625 803.511719 85.453125 803.859375 84.585938 803.03125 C 84.585938 803.03125 86.226562 802.988281 87.117188 802.300781 "/>
<path fill-rule="nonzero" fill="rgb(8.110046%, 13.105774%, 22.946167%)" fill-opacity="1" d="M 97.664062 787.988281 C 96.671875 786.875 95.199219 786.226562 93.835938 786.289062 L 92.972656 786.425781 L 92.855469 786.464844 C 91.816406 786.804688 90.46875 787.777344 89.953125 790.476562 L 89.933594 790.535156 L 89.847656 790.738281 C 89.796875 790.859375 89.746094 790.972656 89.722656 791.03125 C 89.503906 790.886719 89.183594 790.730469 88.730469 790.59375 C 87.359375 790.183594 85.316406 790.132812 82.664062 790.441406 C 82.566406 790.453125 82.292969 790.53125 82.070312 790.683594 C 81.28125 790.511719 78.320312 789.917969 74.871094 789.898438 C 74.222656 789.335938 71.097656 787.03125 63.539062 787.222656 C 63.503906 787.222656 60.089844 787.339844 58.671875 787.023438 L 58.601562 787.015625 C 58.59375 787.015625 57.800781 786.976562 57.210938 786.554688 C 55.394531 785.25 50.148438 783.988281 49.359375 783.917969 L 49.21875 783.90625 L 49.101562 783.988281 C 48.96875 784.082031 48.417969 784.339844 48.925781 785.46875 C 48.992188 785.613281 49.140625 785.816406 50.566406 786.65625 C 50.726562 786.75 50.964844 786.925781 50.988281 786.941406 C 51.386719 787.226562 52.382812 787.660156 53.726562 788.25 C 52.675781 788.292969 51.777344 788.433594 51.515625 788.777344 L 51.167969 789.238281 L 51.722656 789.398438 C 51.871094 789.441406 55.402344 790.429688 58.488281 790.035156 C 59.140625 790.261719 62.984375 791.519531 68.949219 791.914062 C 69.355469 792.152344 71.09375 793.085938 74.851562 793.945312 C 75.105469 794.058594 76.527344 794.660156 78.980469 795.316406 C 78.109375 795.375 77.230469 795.5 76.511719 795.738281 L 75.230469 796.164062 L 76.546875 796.496094 C 76.558594 796.5 78.089844 796.910156 80.375 799.769531 L 80.398438 799.792969 C 80.519531 799.921875 82.992188 802.472656 85.320312 802.472656 C 85.753906 802.472656 86.183594 802.382812 86.59375 802.171875 L 86.609375 802.164062 C 86.707031 802.109375 89.011719 800.773438 90.355469 799.089844 C 90.589844 798.796875 90.785156 798.546875 90.96875 798.316406 C 91.40625 797.761719 91.765625 797.3125 92.34375 796.628906 C 92.5625 796.808594 92.933594 797.195312 93.398438 797.984375 L 93.417969 798.015625 C 93.457031 798.070312 93.8125 798.542969 94.429688 798.628906 C 94.839844 798.6875 95.246094 798.558594 95.644531 798.25 C 95.71875 798.210938 95.894531 798.105469 96.230469 797.878906 C 96.4375 797.738281 96.625 797.566406 96.785156 797.363281 C 96.902344 797.214844 97.027344 797.089844 97.144531 796.996094 L 97.160156 796.980469 C 97.25 796.898438 97.546875 796.679688 97.835938 796.640625 C 97.933594 796.625 98.429688 796.507812 98.433594 795.628906 L 98.441406 795.53125 L 98.597656 795.304688 C 98.597656 795.304688 98.597656 795.304688 98.601562 795.300781 L 98.609375 795.289062 C 98.664062 795.207031 98.710938 795.105469 98.746094 795.011719 L 99.019531 794.257812 C 99.042969 794.1875 99.078125 794.097656 99.117188 794 C 99.289062 793.550781 99.554688 792.878906 99.664062 792.179688 C 99.675781 792.113281 99.871094 790.472656 97.664062 787.988281 "/>
<path fill-rule="nonzero" fill="rgb(100%, 100%, 100%)" fill-opacity="1" d="M 99.535156 791.984375 C 99.503906 791.496094 96.960938 791.804688 96.085938 791.980469 C 95.378906 792.117188 95.324219 792.039062 94.707031 791.832031 C 94.578125 791.722656 94.082031 791.78125 93.5625 791.640625 C 92.621094 791.378906 89.457031 789.398438 90.878906 791.441406 C 91.898438 792.476562 88.964844 790.597656 86.890625 790.621094 C 85.464844 790.636719 82.480469 790.375 82.167969 791.015625 C 80.527344 790.730469 78.878906 790.777344 77.242188 790.789062 C 76.507812 790.796875 75.785156 790.613281 75.140625 790.265625 L 74.378906 789.847656 C 71.820312 788.492188 69.117188 787.535156 66.214844 787.492188 L 59.800781 787.394531 C 58.492188 787.375 57.195312 787.007812 56.125 786.257812 C 54.46875 785.101562 54.144531 785.671875 53.085938 786.097656 C 52.855469 785.980469 52.550781 785.84375 52.171875 785.679688 C 51.460938 785.113281 50.699219 784.746094 49.886719 784.328125 C 49.636719 784.199219 49.332031 784.355469 49.292969 784.636719 C 49.28125 784.722656 49.261719 784.804688 49.21875 784.882812 C 49.09375 785.113281 49.15625 785.402344 49.367188 785.554688 C 50.054688 786.046875 50.761719 786.476562 51.710938 786.617188 C 52.011719 786.78125 52.25 786.894531 52.464844 786.988281 C 53.382812 787.753906 54.425781 787.953125 55.472656 788.53125 C 53.929688 788.753906 52.765625 788.261719 51.410156 788.9375 C 53.175781 789.019531 54.875 789.808594 56.066406 789.363281 C 56.574219 789.175781 56.78125 789.199219 57.328125 789.144531 C 57.933594 789.472656 58.078125 789.457031 58.078125 789.457031 C 61.542969 790.324219 64.964844 791.050781 68.53125 791.285156 C 69.292969 791.332031 69.210938 791.433594 69.640625 791.84375 C 70.582031 792.757812 72.160156 792.667969 73.304688 793.007812 C 73.609375 793.097656 74.210938 793.667969 74.800781 793.628906 L 77.28125 793.445312 C 77.910156 795.09375 82.859375 795.359375 84.609375 795.882812 C 80.699219 796.828125 82.085938 794.90625 77.46875 796.15625 C 77.445312 796.761719 78.113281 796.957031 78.457031 797.164062 C 79.066406 797.53125 79.117188 797.535156 79.453125 797.765625 C 80.546875 799.515625 81.941406 800.1875 83.019531 800.980469 C 83.570312 801.398438 84.070312 801.695312 84.792969 801.867188 C 85.085938 801.914062 85.207031 801.914062 85.476562 801.886719 C 86.328125 801.796875 88.34375 800.730469 88.8125 800.351562 C 89.609375 799.703125 89.679688 799.558594 90.375 798.769531 C 91.183594 797.847656 91.632812 797.101562 92.449219 796.136719 C 92.707031 796.515625 92.902344 796.839844 93.125 796.917969 C 93.867188 797.179688 93.886719 797.675781 94.199219 797.925781 C 95.191406 798.710938 97.910156 797.023438 97.859375 795.144531 C 97.847656 794.671875 99.621094 793.261719 99.535156 791.984375 "/>
<path fill-rule="nonzero" fill="rgb(100%, 100%, 100%)" fill-opacity="1" d="M 75.773438 788.71875 C 75.136719 788.53125 74.441406 788.207031 74.203125 788.085938 C 73.03125 787.515625 72.128906 787.167969 71.472656 786.960938 C 70.511719 786.652344 69.78125 785.867188 69.5 784.902344 C 69.167969 783.761719 68.882812 782.613281 68.183594 781.496094 C 67.742188 782.417969 68.867188 783.066406 68.363281 783.878906 C 68.367188 783.621094 68.28125 783.488281 68.183594 783.402344 C 68.1875 783.402344 68.1875 783.402344 68.191406 783.402344 C 67.328125 782.480469 66.667969 781.597656 65.714844 780.871094 C 65.78125 781.554688 66.355469 781.808594 66.347656 782.585938 C 65.753906 782.386719 65.832031 781.484375 64.976562 781.441406 C 65.445312 782.542969 66.441406 783.789062 66.820312 784.171875 C 66.851562 784.511719 67.117188 784.816406 67.402344 785.464844 C 66.652344 785.902344 66.199219 785.015625 65.308594 785.332031 C 65.789062 786.066406 68.535156 787.5 69.546875 787.878906 C 71.046875 788.441406 73.671875 789.628906 73.671875 789.628906 C 75.605469 790.742188 76.453125 791.453125 77.484375 791.253906 C 78.378906 791.082031 79.75 791.109375 80.671875 790.816406 C 78.933594 789.902344 77.597656 789.246094 75.773438 788.71875 "/>
<path fill-rule="nonzero" fill="rgb(100%, 100%, 100%)" fill-opacity="1" d="M 97.878906 795.378906 C 98.097656 795.625 98.738281 794.324219 98.738281 794.09375 C 98.738281 793.96875 98.949219 793.761719 98.390625 793.773438 C 97.792969 793.785156 97.488281 794.9375 97.878906 795.378906 "/>
<path fill-rule="nonzero" fill="rgb(94.828796%, 33.262634%, 13.275146%)" fill-opacity="1" d="M 93.703125 786.253906 C 93.523438 786.265625 93.292969 786.3125 92.996094 786.425781 C 91.453125 786.695312 90.691406 787.929688 90.214844 789.136719 C 89.984375 789.714844 89.976562 790.121094 90.128906 790.417969 L 90.144531 790.421875 C 90.402344 790.960938 93.636719 792.023438 95.339844 792.144531 C 95.386719 792.148438 95.429688 792.148438 95.472656 792.152344 L 95.519531 792.152344 C 95.675781 792.15625 96.050781 792.269531 96.121094 792.277344 C 96.125 792.277344 96.128906 792.28125 96.128906 792.28125 C 96.253906 792.300781 96.84375 792.332031 97.523438 792.382812 C 98.15625 792.382812 99.003906 792.285156 99.671875 791.957031 C 99.835938 788.617188 95.589844 785.699219 93.703125 786.253906 "/>
<path fill-rule="nonzero" fill="rgb(94.828796%, 33.262634%, 13.275146%)" fill-opacity="1" d="M 68.902344 838 L 61.246094 838 L 61.929688 833.960938 C 62.359375 831.375 63.96875 830.082031 66.753906 830.082031 L 67.449219 830.082031 C 67.914062 830.082031 68.164062 829.960938 68.207031 829.722656 C 68.269531 829.375 68.066406 829.203125 67.601562 829.203125 L 63.425781 829.203125 L 64.015625 825.683594 L 67.496094 825.683594 C 70.28125 825.683594 71.445312 827.03125 70.992188 829.722656 C 70.554688 832.308594 68.945312 833.601562 66.160156 833.601562 C 65.230469 833.601562 64.75 833.722656 64.714844 833.960938 L 64.621094 834.480469 L 69.496094 834.480469 L 68.902344 838 "/>
<path fill-rule="nonzero" fill="rgb(94.828796%, 33.262634%, 13.275146%)" fill-opacity="1" d="M 77.238281 833.707031 C 77.730469 833.191406 78.042969 832.570312 78.167969 831.839844 C 78.289062 831.113281 78.1875 830.492188 77.867188 829.976562 C 77.546875 829.460938 77.101562 829.203125 76.523438 829.203125 C 75.949219 829.203125 75.414062 829.460938 74.917969 829.976562 C 74.417969 830.492188 74.113281 831.113281 73.992188 831.839844 C 73.863281 832.570312 73.964844 833.191406 74.285156 833.707031 C 74.609375 834.222656 75.058594 834.480469 75.632812 834.480469 C 76.210938 834.480469 76.742188 834.222656 77.238281 833.707031 Z M 75.042969 838 C 73.695312 838 72.648438 837.398438 71.898438 836.195312 C 71.148438 834.996094 70.917969 833.542969 71.207031 831.839844 C 71.488281 830.140625 72.210938 828.691406 73.363281 827.488281 C 74.519531 826.285156 75.769531 825.683594 77.117188 825.683594 C 78.460938 825.683594 79.507812 826.285156 80.253906 827.488281 C 81.003906 828.691406 81.234375 830.140625 80.949219 831.839844 C 80.664062 833.542969 79.941406 834.996094 78.789062 836.195312 C 77.636719 837.398438 76.386719 838 75.042969 838 "/>
<path fill-rule="nonzero" fill="rgb(94.828796%, 33.262634%, 13.275146%)" fill-opacity="1" d="M 88.265625 838 L 80.609375 838 L 81.292969 833.960938 C 81.722656 831.375 83.332031 830.082031 86.117188 830.082031 L 86.8125 830.082031 C 87.277344 830.082031 87.527344 829.960938 87.570312 829.722656 C 87.628906 829.375 87.429688 829.203125 86.964844 829.203125 L 82.789062 829.203125 L 83.378906 825.683594 L 86.859375 825.683594 C 89.644531 825.683594 90.808594 827.03125 90.355469 829.722656 C 89.917969 832.308594 88.308594 833.601562 85.523438 833.601562 C 84.59375 833.601562 84.113281 833.722656 84.074219 833.960938 L 83.984375 834.480469 L 88.859375 834.480469 L 88.265625 838 "/>
<path fill-rule="nonzero" fill="rgb(94.828796%, 33.262634%, 13.275146%)" fill-opacity="1" d="M 95.074219 834.480469 C 95.539062 834.480469 95.792969 834.335938 95.84375 834.042969 C 95.890625 833.75 95.683594 833.601562 95.21875 833.601562 L 93.828125 833.601562 C 93.363281 833.601562 93.109375 833.75 93.0625 834.042969 C 93.011719 834.335938 93.214844 834.480469 93.679688 834.480469 Z M 94.570312 829.203125 C 94.109375 829.203125 93.824219 829.496094 93.722656 830.082031 L 95.8125 830.082031 C 98.132812 830.082031 99.070312 831.402344 98.628906 834.042969 C 98.183594 836.679688 96.800781 838 94.480469 838 L 93.089844 838 C 90.769531 838 89.832031 836.679688 90.277344 834.042969 L 91.015625 829.640625 C 91.460938 827.003906 92.84375 825.683594 95.164062 825.683594 L 99.386719 825.683594 L 98.796875 829.203125 L 94.570312 829.203125 "/>
<path fill-rule="nonzero" fill="rgb(44.064331%, 70.281982%, 89.961243%)" fill-opacity="1" d="M 7.625 796.464844 C 7.625 796.464844 11.035156 798.046875 16.5 797.6875 C 16.5 797.6875 19.203125 797.566406 28.6875 799.667969 C 28.6875 799.667969 37.035156 801.648438 40.398438 801.289062 C 40.398438 801.289062 56.960938 807.808594 59.96875 803.46875 C 59.96875 803.46875 62.554688 804.230469 65.738281 803.210938 C 65.738281 803.210938 66.578125 804.050781 69.941406 803.8125 C 69.941406 803.8125 79.171875 802.144531 84.699219 803.058594 C 84.699219 803.058594 81.816406 802.960938 77.730469 798.300781 C 77.730469 798.300781 76 796.28125 72.582031 795.886719 C 72.582031 795.886719 72.703125 795.585938 74.984375 795.164062 C 74.984375 795.164062 70.902344 793.542969 65.738281 792.464844 C 65.738281 792.464844 56.191406 789.332031 51.265625 791.585938 C 51.265625 791.585938 55.710938 791.082031 54.328125 793.363281 C 54.328125 793.363281 49.40625 796.183594 40.578125 794.023438 C 40.578125 794.023438 34.152344 792.164062 27.667969 793.183594 C 27.667969 793.183594 23.988281 793.976562 15.972656 795.558594 C 15.480469 795.65625 14.980469 795.734375 14.484375 795.789062 C 13.210938 795.929688 10.492188 796.21875 7.625 796.464844 "/>
</svg>
